# xmcd
# 
# Track frame offsets:
#     150
#     19322
#     43317
#     60115
#     82115
#     101395
#     119045
#     137415
#     155160
#     180105
#     196420
#     215317
#     229407
#     249425
#     272007
# 
# Disc length: 3904
# 
# Revision: 5
# Processed by: cddbd v1.5.2PL0 Copyright (c) Steve Scherf et al.
# Submitted via: BonkEnc v1.0beta4
# 
DISCID=ce0f3e0f
DTITLE=2Pac - Until The End Of Time - CD1
DYEAR=2001
DGENRE=Gangsta Rap
TTITLE0=Ballad Of A Dead Soulja
TTITLE1=F*** Friendz
TTITLE2=Lil' Homies
TTITLE3=Let Em Have It
TTITLE4=Good Life
TTITLE5=Letter 2 My Unborn 
TTITLE6=Breathin
TTITLE7=Happy Home
TTITLE8=All Out
TTITLE9=F***** Wit The wrong N****
TTITLE10=Thug N U Thug N Me (Remix)
TTITLE11=Everything They Owe
TTITLE12=Until The End Of Time
TTITLE13=M.O.B.
TTITLE14=World Wide Mob Figgaz
EXTD=
EXTT0=
EXTT1=
EXTT2=
EXTT3=
EXTT4=
EXTT5=
EXTT6=
EXTT7=
EXTT8=
EXTT9=
EXTT10=
EXTT11=
EXTT12=
EXTT13=
EXTT14=
PLAYORDER=
